# xmcd CD database file
#
# Track frame offsets:
#	150
#	19899
#	35452
#	49372
#	65075
#	82531
#	102295
#	115095
#	131637
#	148435
#	165979
#	177132
#	192124
#
# Disc length: 2728 seconds
#
# Revision: 2
# Processed by: cddbd v1.5.2PL0 Copyright (c) Steve Scherf et al.
# Submitted via: CDex 1.51
#
DISCID=ae0aa60d
DTITLE=Various Artist - CDX 234 February 2000
DYEAR=2000
DGENRE=
TTITLE0=Jason Sellers - Cant Help Calling Your Name
TTITLE1=Sons of the Desert - Change
TTITLE2=Perfect Stranger - Coming Up Short Again
TTITLE3=Neal McCoy - Forever Works For Me
TTITLE4=Dixie Chicks - Goodbye Ear(Radio Edit)l
TTITLE5=Dixie Chicks - Goodbye Earl(Album Version)
TTITLE6=Blackhawk - I Need You All The Time
TTITLE7=Rascal Flatts - Prayin' For Daylight
TTITLE8=Bellamy Brothers - Verticle Expression(Of Horizontal Desire)
TTITLE9=Tim Rushlow - When You Love Me
TTITLE10=Billy Swan - Wooden Heart
TTITLE11=John Sines Jr - The Horse They Rode In On
TTITLE12=Amanda Pearce - Yesterday's News
EXTD=YEAR: 2000
EXTT0=
EXTT1=
EXTT2=
EXTT3=
EXTT4=
EXTT5=
EXTT6=
EXTT7=
EXTT8=
EXTT9=
EXTT10=
EXTT11=
EXTT12=
PLAYORDER=
